<svg width="800" height="800" viewBox="0 0 800 800" fill="none" xmlns="http://www.w3.org/2000/svg">
<path fill-rule="evenodd" clip-rule="evenodd" d="M277.067 133.333C131.252 133.333 100 164.586 100 310.4V489.6C100 635.413 131.252 666.667 277.067 666.667H522.933C668.747 666.667 700 635.413 700 489.6V310.4C700 306.879 700.043 301.792 700.097 295.86C700.427 260.698 672.69 233.333 637.527 233.333H469.013C446.723 233.333 425.907 222.193 413.543 203.647L386.457 163.02C374.093 144.473 353.277 133.333 330.988 133.333H277.067ZM433.333 366.667C433.333 348.257 418.409 333.333 400 333.333C381.591 333.333 366.667 348.257 366.667 366.667V469.526L340.237 443.096C327.219 430.079 306.114 430.079 293.096 443.096C280.079 456.114 280.079 477.219 293.096 490.237L373.72 570.86C374.188 571.328 374.666 571.782 375.152 572.22C381.256 579.041 390.126 583.333 400 583.333C409.874 583.333 418.744 579.04 424.848 572.219C425.334 571.781 425.812 571.328 426.28 570.86L506.904 490.237C519.921 477.219 519.921 456.114 506.904 443.096C493.886 430.079 472.781 430.079 459.763 443.096L433.333 469.526V366.667Z" fill="white"/>
</svg>
